<svg xmlns="http://www.w3.org/2000/svg" xmlns:xlink="http://www.w3.org/1999/xlink" viewBox="0 0 152.9 198.53"><defs><style>.cls-1{isolation:isolate;}.cls-2{opacity:0.3;fill:url(#radial-gradient);}.cls-2,.cls-9{mix-blend-mode:multiply;}.cls-3{fill:#f1172f;}.cls-4{fill:#98e847;}.cls-5,.cls-9{fill:#71d50b;}.cls-6{fill:#d0d2d3;}.cls-7{fill:#bbbdbf;}.cls-8{fill:#fff;}.cls-9{opacity:0.4;}</style><radialGradient id="radial-gradient" cx="77.11" cy="192.63" r="62.99" gradientTransform="translate(-0.66 175.79) scale(1 0.08)" gradientUnits="userSpaceOnUse"><stop offset="0.18"/><stop offset="1" stop-opacity="0"/></radialGradient></defs><title>green</title><g class="cls-1"><g id="OBJECTS"><ellipse class="cls-2" cx="76.45" cy="192.02" rx="67.26" ry="6.51"/><path class="cls-3" d="M153.55,77.06a76.45,76.45,0,1,0-152.9,0c0,48.55,76.45,108.74,76.45,108.74S153.55,125.61,153.55,77.06Z" transform="translate(-0.66 -0.61)"/><path class="cls-4" d="M77.11.61A76.45,76.45,0,0,0,.66,77.06c0,21.1,14.44,44.39,30.76,64L133.89,25.88A76.25,76.25,0,0,0,77.11.61Z" transform="translate(-0.66 -0.61)"/><path class="cls-5" d="M31.42,141A346.4,346.4,0,0,0,77.11,185.8s76.45-60.19,76.45-108.74a76.16,76.16,0,0,0-19.66-51.18Z" transform="translate(-0.66 -0.61)"/><path class="cls-6" d="M49,121.29a52.5,52.5,0,0,0,68.88-77.41Z" transform="translate(-0.66 -0.61)"/><path class="cls-7" d="M77.11,24.45A52.5,52.5,0,0,0,49,121.29l68.88-77.41A52.39,52.39,0,0,0,77.11,24.45Z" transform="translate(-0.66 -0.61)"/><circle class="cls-8" cx="76.45" cy="76.34" r="48.05"/><path class="cls-4" d="M133.89,25.88l-4,4.52a70.29,70.29,0,0,1,17.69,46.66c0,18.31-12.64,42-36.56,68.42A355.22,355.22,0,0,1,77.11,178,343.84,343.84,0,0,1,36,137.21l-.57-.7-4,4.54A346.42,346.42,0,0,0,77.11,185.8s76.45-60.19,76.45-108.74A76.16,76.16,0,0,0,133.89,25.88Z" transform="translate(-0.66 -0.61)"/><path class="cls-9" d="M6.66,77.06A70.44,70.44,0,0,1,129.43,29.9l.43.5,4-4.52A76.44,76.44,0,0,0,.66,77.06c0,21.1,14.44,44.39,30.76,64l4-4.54C16.62,113.72,6.66,93.18,6.66,77.06Z" transform="translate(-0.66 -0.61)"/></g></g></svg>